<svg xmlns="http://www.w3.org/2000/svg" xmlns:xlink="http://www.w3.org/1999/xlink" width="500" zoomAndPan="magnify" viewBox="0 0 375 374.999991" height="500" preserveAspectRatio="xMidYMid meet" version="1.2"><defs><clipPath id="6366a145e6"><path d="M 70.070312 113.683594 L 111.449219 113.683594 L 111.449219 234.605469 L 70.070312 234.605469 Z M 70.070312 113.683594 "/></clipPath><clipPath id="0838b255c3"><path d="M 167.488281 113.683594 L 208.871094 113.683594 L 208.871094 234.605469 L 167.488281 234.605469 Z M 167.488281 113.683594 "/></clipPath><clipPath id="a01b5d7888"><path d="M 119 131.824219 L 160.378906 131.824219 L 160.378906 234.605469 L 119 234.605469 Z M 119 131.824219 "/></clipPath><clipPath id="ca0fa063aa"><path d="M 216.417969 113.683594 L 257.800781 113.683594 L 257.800781 234.605469 L 216.417969 234.605469 Z M 216.417969 113.683594 "/></clipPath><clipPath id="cabbda2d2c"><path d="M 263.550781 131.824219 L 304.929688 131.824219 L 304.929688 234.605469 L 263.550781 234.605469 Z M 263.550781 131.824219 "/></clipPath></defs><g id="9d19137965"><g clip-rule="nonzero" clip-path="url(#6366a145e6)"><path style=" stroke:none;fill-rule:nonzero;fill:#ffde59;fill-opacity:1;" d="M 70.070312 113.683594 L 111.449219 113.683594 L 111.449219 234.589844 L 70.070312 234.589844 Z M 70.070312 113.683594 "/></g><g clip-rule="nonzero" clip-path="url(#0838b255c3)"><path style=" stroke:none;fill-rule:nonzero;fill:#c9e265;fill-opacity:1;" d="M 167.488281 113.683594 L 208.871094 113.683594 L 208.871094 234.589844 L 167.488281 234.589844 Z M 167.488281 113.683594 "/></g><g clip-rule="nonzero" clip-path="url(#a01b5d7888)"><path style=" stroke:none;fill-rule:nonzero;fill:#ddb07f;fill-opacity:1;" d="M 119 131.824219 L 160.378906 131.824219 L 160.378906 234.625 L 119 234.625 Z M 119 131.824219 "/></g><g clip-rule="nonzero" clip-path="url(#ca0fa063aa)"><path style=" stroke:none;fill-rule:nonzero;fill:#ff914d;fill-opacity:1;" d="M 216.417969 113.683594 L 257.800781 113.683594 L 257.800781 234.589844 L 216.417969 234.589844 Z M 216.417969 113.683594 "/></g><g style="fill:#000000;fill-opacity:1;"><g transform="translate(79.569776, 225.45599)"><path style="stroke:none" d="M 1.859375 -25.078125 L 12.609375 -25.078125 C 14.140625 -25.078125 15.441406 -24.789062 16.515625 -24.21875 C 17.585938 -23.644531 18.382812 -22.875 18.90625 -21.90625 C 19.4375 -20.9375 19.703125 -19.867188 19.703125 -18.703125 C 19.703125 -17.296875 19.34375 -16.144531 18.625 -15.25 C 17.914062 -14.351562 17.082031 -13.769531 16.125 -13.5 L 16.125 -13.25 C 16.84375 -13.15625 17.585938 -12.878906 18.359375 -12.421875 C 19.140625 -11.972656 19.800781 -11.3125 20.34375 -10.4375 C 20.894531 -9.570312 21.171875 -8.515625 21.171875 -7.265625 C 21.171875 -6.078125 20.898438 -4.921875 20.359375 -3.796875 C 19.828125 -2.671875 18.972656 -1.75 17.796875 -1.03125 C 16.628906 -0.320312 15.175781 0.03125 13.4375 0.03125 L 1.859375 0.03125 Z M 10.921875 -14.875 C 11.898438 -14.875 12.734375 -15.097656 13.421875 -15.546875 C 14.117188 -16.003906 14.46875 -16.757812 14.46875 -17.8125 C 14.46875 -18.832031 14.113281 -19.5625 13.40625 -20 C 12.707031 -20.445312 11.878906 -20.671875 10.921875 -20.671875 L 7.34375 -20.671875 L 7.34375 -14.875 Z M 12.1875 -4.40625 C 13.164062 -4.40625 14.023438 -4.644531 14.765625 -5.125 C 15.503906 -5.601562 15.875 -6.4375 15.875 -7.625 C 15.875 -8.800781 15.492188 -9.640625 14.734375 -10.140625 C 13.984375 -10.640625 13.132812 -10.890625 12.1875 -10.890625 L 7.34375 -10.890625 L 7.34375 -4.40625 Z M 12.1875 -4.40625 "/></g></g><g style="fill:#000000;fill-opacity:1;"><g transform="translate(134.518839, 225.45599)"><path style="stroke:none" d="M 2.109375 -25.078125 L 7.734375 -25.078125 L 7.734375 0 L 2.109375 0 Z M 2.109375 -25.078125 "/></g></g><g style="fill:#000000;fill-opacity:1;"><g transform="translate(177.214036, 225.45599)"><path style="stroke:none" d="M 1.859375 -25.078125 L 12.609375 -25.078125 C 14.140625 -25.078125 15.441406 -24.789062 16.515625 -24.21875 C 17.585938 -23.644531 18.382812 -22.875 18.90625 -21.90625 C 19.4375 -20.9375 19.703125 -19.867188 19.703125 -18.703125 C 19.703125 -17.296875 19.34375 -16.144531 18.625 -15.25 C 17.914062 -14.351562 17.082031 -13.769531 16.125 -13.5 L 16.125 -13.25 C 16.84375 -13.15625 17.585938 -12.878906 18.359375 -12.421875 C 19.140625 -11.972656 19.800781 -11.3125 20.34375 -10.4375 C 20.894531 -9.570312 21.171875 -8.515625 21.171875 -7.265625 C 21.171875 -6.078125 20.898438 -4.921875 20.359375 -3.796875 C 19.828125 -2.671875 18.972656 -1.75 17.796875 -1.03125 C 16.628906 -0.320312 15.175781 0.03125 13.4375 0.03125 L 1.859375 0.03125 Z M 10.921875 -14.875 C 11.898438 -14.875 12.734375 -15.097656 13.421875 -15.546875 C 14.117188 -16.003906 14.46875 -16.757812 14.46875 -17.8125 C 14.46875 -18.832031 14.113281 -19.5625 13.40625 -20 C 12.707031 -20.445312 11.878906 -20.671875 10.921875 -20.671875 L 7.34375 -20.671875 L 7.34375 -14.875 Z M 12.1875 -4.40625 C 13.164062 -4.40625 14.023438 -4.644531 14.765625 -5.125 C 15.503906 -5.601562 15.875 -6.4375 15.875 -7.625 C 15.875 -8.800781 15.492188 -9.640625 14.734375 -10.140625 C 13.984375 -10.640625 13.132812 -10.890625 12.1875 -10.890625 L 7.34375 -10.890625 L 7.34375 -4.40625 Z M 12.1875 -4.40625 "/></g></g><g style="fill:#000000;fill-opacity:1;"><g transform="translate(227.522846, 225.45599)"><path style="stroke:none" d="M 18.015625 -4.875 L 18.015625 0 L 1.859375 0 L 1.859375 -25.078125 L 7.484375 -25.078125 L 7.453125 -4.875 Z M 18.015625 -4.875 "/></g></g><g clip-rule="nonzero" clip-path="url(#cabbda2d2c)"><path style=" stroke:none;fill-rule:nonzero;fill:#c9e265;fill-opacity:1;" d="M 263.550781 131.824219 L 304.929688 131.824219 L 304.929688 234.625 L 263.550781 234.625 Z M 263.550781 131.824219 "/></g><g style="fill:#000000;fill-opacity:1;"><g transform="translate(274.234146, 225.45599)"><path style="stroke:none" d="M 12.9375 0.328125 C 10.425781 0.328125 8.296875 -0.25 6.546875 -1.40625 C 4.804688 -2.570312 3.5 -4.128906 2.625 -6.078125 C 1.757812 -8.023438 1.328125 -10.179688 1.328125 -12.546875 C 1.328125 -14.910156 1.769531 -17.082031 2.65625 -19.0625 C 3.539062 -21.039062 4.851562 -22.617188 6.59375 -23.796875 C 8.332031 -24.984375 10.445312 -25.578125 12.9375 -25.578125 C 15.375 -25.578125 17.457031 -24.988281 19.1875 -23.8125 C 20.914062 -22.644531 22.21875 -21.066406 23.09375 -19.078125 C 23.96875 -17.085938 24.40625 -14.894531 24.40625 -12.5 C 24.40625 -10.113281 23.96875 -7.945312 23.09375 -6 C 22.21875 -4.050781 20.914062 -2.507812 19.1875 -1.375 C 17.457031 -0.238281 15.375 0.328125 12.9375 0.328125 Z M 12.890625 -4.65625 C 14.660156 -4.65625 16.03125 -5.40625 17 -6.90625 C 17.96875 -8.414062 18.453125 -10.304688 18.453125 -12.578125 C 18.453125 -14.816406 17.972656 -16.710938 17.015625 -18.265625 C 16.054688 -19.816406 14.679688 -20.59375 12.890625 -20.59375 C 11.679688 -20.59375 10.648438 -20.222656 9.796875 -19.484375 C 8.953125 -18.742188 8.316406 -17.765625 7.890625 -16.546875 C 7.472656 -15.328125 7.265625 -14.003906 7.265625 -12.578125 C 7.265625 -10.359375 7.75 -8.484375 8.71875 -6.953125 C 9.6875 -5.421875 11.078125 -4.65625 12.890625 -4.65625 Z M 12.890625 -4.65625 "/></g></g></g></svg>